<svg width="528" height="84" viewBox="0 0 528 84" fill="none" xmlns="http://www.w3.org/2000/svg">
<rect x="240" y="54.6188" width="252" height="29" rx="14.5" fill="url(#paint0_linear)" fill-opacity="0.2"/>
<rect x="240" y="54.6188" width="252" height="29" rx="14.5" fill="url(#paint1_linear)" fill-opacity="0.2"/>
<rect x="240" y="54.6188" width="252" height="29" rx="14.5" fill="url(#paint2_linear)" fill-opacity="0.6"/>
<path d="M521.116 60L512.473 64.1016C512.213 63.9269 511.907 63.8334 511.594 63.8328C511.179 63.8328 510.782 63.9974 510.489 64.2905C510.196 64.5835 510.031 64.9809 510.031 65.3953C510.031 65.8097 510.196 66.2071 510.489 66.5002C510.782 66.7932 511.179 66.9578 511.594 66.9578C512.414 66.9578 513.095 66.3227 513.156 65.5172L517.893 63.2711C519.311 63.8695 520.188 64.6508 520.188 65.3953C520.188 66.8695 516.846 68.5203 512.375 68.5203C507.904 68.5203 504.562 66.8695 504.562 65.3953C504.562 63.9211 507.904 62.2703 512.375 62.2703C512.509 62.2703 512.631 62.2672 512.766 62.2703L515.524 60.9766C514.484 60.7993 513.43 60.7094 512.375 60.7078C507.031 60.7078 503 62.7219 503 65.3953V73.2078C503 73.9797 503.348 74.6883 503.879 75.2586C504.41 75.8289 505.133 76.2898 505.979 76.675C507.669 77.4437 509.906 77.8953 512.375 77.8953C514.844 77.8953 517.08 77.4437 518.772 76.6742C519.617 76.2898 520.34 75.8289 520.871 75.2586C521.402 74.6883 521.75 73.9797 521.75 73.2078V65.3953C521.75 64.2414 520.987 63.2156 519.699 62.4164L521.774 61.4164L521.116 60ZM504.562 68.0562C505.356 68.6547 506.421 69.1461 507.688 69.4969V75.6734C507.297 75.5516 506.94 75.4078 506.613 75.2586C505.905 74.9352 505.365 74.5477 505.027 74.1844C504.687 73.8211 504.562 73.5164 504.562 73.2078V68.0562ZM520.188 68.0562V73.2078C520.188 73.5164 520.063 73.8211 519.723 74.1844C519.385 74.5477 518.845 74.9344 518.137 75.2586C517.81 75.4078 517.453 75.5516 517.062 75.6734V69.4969C518.329 69.1453 519.394 68.6547 520.188 68.0562ZM509.25 69.8383C510.283 70.0054 511.328 70.0872 512.375 70.0828C513.422 70.0872 514.467 70.0054 515.5 69.8383V76.0398C514.539 76.2195 513.486 76.3328 512.375 76.3328C511.264 76.3328 510.211 76.2195 509.25 76.0398V69.8383Z" fill="white" fill-opacity="0.25"/>
<ellipse cx="266.172" cy="68.1807" rx="3.17241" ry="3.18072" fill="white" fill-opacity="0.37"/>
<path d="M195 47L220.242 68H263" stroke="white" stroke-opacity="0.37"/>
<defs>
<linearGradient id="paint0_linear" x1="366" y1="54.6188" x2="366" y2="83.6188" gradientUnits="userSpaceOnUse">
<stop stop-color="#C4C4C4"/>
<stop offset="1" stop-color="#C4C4C4" stop-opacity="0"/>
</linearGradient>
<linearGradient id="paint1_linear" x1="356.436" y1="58.4657" x2="361.448" y2="84.4954" gradientUnits="userSpaceOnUse">
<stop stop-color="white" stop-opacity="0.41"/>
<stop offset="1" stop-color="#0C0C0C" stop-opacity="0"/>
</linearGradient>
<linearGradient id="paint2_linear" x1="366" y1="54.6188" x2="366" y2="83.6188" gradientUnits="userSpaceOnUse">
<stop stop-color="white" stop-opacity="0"/>
<stop offset="0.197917" stop-color="#FEFEFE" stop-opacity="0.21"/>
<stop offset="0.375" stop-color="#FCFCFC" stop-opacity="0.34"/>
<stop offset="0.453125" stop-color="white" stop-opacity="0"/>
</linearGradient>
</defs>
</svg>
