<svg width="528" height="84" viewBox="0 0 528 84" fill="none" xmlns="http://www.w3.org/2000/svg">
<rect x="240" y="54.6188" width="252" height="29" rx="14.5" fill="url(#paint0_linear)" fill-opacity="0.2"/>
<rect x="240" y="54.6188" width="252" height="29" rx="14.5" fill="url(#paint1_linear)" fill-opacity="0.2"/>
<rect x="240" y="54.6188" width="252" height="29" rx="14.5" fill="url(#paint2_linear)" fill-opacity="0.6"/>
<ellipse cx="266.172" cy="68.1807" rx="3.17241" ry="3.18072" fill="white" fill-opacity="0.37"/>
<path d="M195 47L220.242 68H263" stroke="white" stroke-opacity="0.37"/>
<path d="M516 64V59C516 58.7348 515.895 58.4804 515.707 58.2929C515.52 58.1054 515.265 58 515 58C514.735 58 514.48 58.1054 514.293 58.2929C514.105 58.4804 514 58.7348 514 59V64H510V59C510 58.7348 509.895 58.4804 509.707 58.2929C509.52 58.1054 509.265 58 509 58C508.735 58 508.48 58.1054 508.293 58.2929C508.105 58.4804 508 58.7348 508 59V64H505V68C505.001 69.3235 505.377 70.6197 506.085 71.7379C506.793 72.8561 507.804 73.7504 509 74.317V78H515V74.317C516.196 73.7504 517.207 72.8561 517.915 71.7379C518.623 70.6197 518.999 69.3235 519 68V64H516Z" fill="white" fill-opacity="0.25"/>
<defs>
<linearGradient id="paint0_linear" x1="366" y1="54.6188" x2="366" y2="83.6188" gradientUnits="userSpaceOnUse">
<stop stop-color="#C4C4C4"/>
<stop offset="1" stop-color="#C4C4C4" stop-opacity="0"/>
</linearGradient>
<linearGradient id="paint1_linear" x1="356.436" y1="58.4657" x2="361.448" y2="84.4954" gradientUnits="userSpaceOnUse">
<stop stop-color="white" stop-opacity="0.41"/>
<stop offset="1" stop-color="#0C0C0C" stop-opacity="0"/>
</linearGradient>
<linearGradient id="paint2_linear" x1="366" y1="54.6188" x2="366" y2="83.6188" gradientUnits="userSpaceOnUse">
<stop stop-color="white" stop-opacity="0"/>
<stop offset="0.197917" stop-color="#FEFEFE" stop-opacity="0.21"/>
<stop offset="0.375" stop-color="#FCFCFC" stop-opacity="0.34"/>
<stop offset="0.453125" stop-color="white" stop-opacity="0"/>
</linearGradient>
</defs>
</svg>
