<svg width="528" height="84" viewBox="0 0 528 84" fill="none" xmlns="http://www.w3.org/2000/svg">
<rect x="240" y="54.6188" width="252" height="29" rx="14.5" fill="url(#paint0_linear)" fill-opacity="0.2"/>
<rect x="240" y="54.6188" width="252" height="29" rx="14.5" fill="url(#paint1_linear)" fill-opacity="0.2"/>
<rect x="240" y="54.6188" width="252" height="29" rx="14.5" fill="url(#paint2_linear)" fill-opacity="0.6"/>
<ellipse cx="266.172" cy="68.1807" rx="3.17241" ry="3.18072" fill="white" fill-opacity="0.37"/>
<path d="M195 47L220.242 68H263" stroke="white" stroke-opacity="0.37"/>
<path d="M517.762 58.0036C517.543 58.0506 517.348 58.1736 517.21 58.351C517.073 58.5283 517.003 58.7485 517.012 58.9726V77.9726C516.99 78.1085 516.998 78.2477 517.035 78.3804C517.072 78.5131 517.137 78.6362 517.226 78.7412C517.315 78.8462 517.426 78.9305 517.551 78.9884C517.676 79.0462 517.812 79.0762 517.95 79.0762C518.088 79.0762 518.224 79.0462 518.349 78.9884C518.474 78.9305 518.585 78.8462 518.674 78.7412C518.763 78.6362 518.828 78.5131 518.865 78.3804C518.902 78.2477 518.91 78.1085 518.887 77.9726V58.9726C518.891 58.839 518.866 58.7063 518.814 58.5831C518.762 58.4598 518.685 58.3489 518.588 58.2574C518.491 58.166 518.375 58.0961 518.249 58.0524C518.123 58.0086 517.989 57.992 517.855 58.0036C517.825 58.0021 517.793 58.0021 517.762 58.0036V58.0036ZM505.763 59.0036C505.543 59.0506 505.348 59.1736 505.21 59.351C505.073 59.5283 505.003 59.7485 505.013 59.9726V76.9726C504.99 77.1085 504.998 77.2477 505.035 77.3804C505.072 77.5131 505.137 77.6362 505.226 77.7412C505.315 77.8462 505.426 77.9305 505.551 77.9884C505.676 78.0462 505.812 78.0762 505.95 78.0762C506.088 78.0762 506.224 78.0462 506.349 77.9884C506.474 77.9305 506.585 77.8462 506.674 77.7412C506.763 77.6362 506.828 77.5131 506.865 77.3804C506.902 77.2477 506.91 77.1085 506.888 76.9726V59.9726C506.891 59.839 506.866 59.7063 506.814 59.5831C506.762 59.4598 506.685 59.3489 506.588 59.2574C506.491 59.166 506.375 59.0961 506.249 59.0524C506.123 59.0086 505.989 58.992 505.856 59.0036C505.825 59.0021 505.793 59.0021 505.763 59.0036V59.0036ZM514.762 62.0036C514.543 62.0506 514.348 62.1736 514.21 62.351C514.073 62.5283 514.003 62.7485 514.012 62.9726V73.9726C513.99 74.1087 513.997 74.2481 514.034 74.3812C514.07 74.5143 514.135 74.6378 514.224 74.7431C514.314 74.8484 514.425 74.933 514.55 74.9911C514.675 75.0491 514.811 75.0792 514.95 75.0792C515.088 75.0792 515.224 75.0491 515.349 74.9911C515.474 74.933 515.585 74.8484 515.675 74.7431C515.764 74.6378 515.829 74.5143 515.865 74.3812C515.902 74.2481 515.909 74.1087 515.886 73.9726V62.9726C515.89 62.8392 515.865 62.7067 515.813 62.5836C515.762 62.4605 515.685 62.3497 515.588 62.2582C515.491 62.1668 515.375 62.0969 515.249 62.053C515.123 62.0092 514.989 61.9923 514.856 62.0036C514.825 62.002 514.793 62.002 514.762 62.0036H514.762ZM502.763 63.0036C502.543 63.0506 502.348 63.1736 502.21 63.351C502.073 63.5283 502.003 63.7485 502.013 63.9726V72.9726C501.99 73.1087 501.997 73.2481 502.034 73.3812C502.07 73.5143 502.135 73.6378 502.224 73.7431C502.314 73.8484 502.425 73.933 502.55 73.9911C502.675 74.0491 502.811 74.0792 502.95 74.0792C503.088 74.0792 503.224 74.0491 503.349 73.9911C503.474 73.933 503.585 73.8484 503.675 73.7431C503.764 73.6378 503.829 73.5143 503.865 73.3812C503.902 73.2481 503.909 73.1087 503.886 72.9726V63.9726C503.89 63.8392 503.865 63.7067 503.813 63.5836C503.762 63.4605 503.685 63.3497 503.588 63.2582C503.491 63.1668 503.375 63.0969 503.249 63.053C503.123 63.0092 502.989 62.9923 502.857 63.0036C502.825 63.002 502.793 63.002 502.762 63.0036H502.763ZM508.762 64.0036C508.543 64.0506 508.348 64.1736 508.21 64.351C508.073 64.5283 508.003 64.7485 508.012 64.9726V71.9726C507.99 72.1087 507.997 72.2481 508.034 72.3812C508.07 72.5143 508.135 72.6378 508.224 72.7431C508.314 72.8484 508.425 72.933 508.55 72.9911C508.675 73.0491 508.811 73.0792 508.95 73.0792C509.088 73.0792 509.224 73.0491 509.349 72.9911C509.474 72.933 509.585 72.8484 509.675 72.7431C509.764 72.6378 509.829 72.5143 509.865 72.3812C509.902 72.2481 509.909 72.1087 509.887 71.9726V64.9726C509.89 64.8392 509.865 64.7067 509.813 64.5836C509.762 64.4605 509.685 64.3497 509.588 64.2582C509.491 64.1668 509.375 64.0969 509.249 64.053C509.123 64.0092 508.989 63.9923 508.856 64.0036C508.825 64.002 508.793 64.002 508.762 64.0036H508.762ZM520.762 64.0036C520.543 64.0506 520.348 64.1736 520.21 64.351C520.073 64.5283 520.003 64.7485 520.012 64.9726V71.9726C519.99 72.1085 519.998 72.2477 520.035 72.3804C520.072 72.5131 520.137 72.6362 520.226 72.7412C520.315 72.8462 520.426 72.9305 520.551 72.9884C520.676 73.0462 520.812 73.0762 520.95 73.0762C521.088 73.0762 521.224 73.0462 521.349 72.9884C521.474 72.9305 521.585 72.8462 521.674 72.7412C521.763 72.6362 521.828 72.5131 521.865 72.3804C521.902 72.2477 521.91 72.1085 521.887 71.9726V64.9726C521.891 64.839 521.866 64.7063 521.814 64.5831C521.762 64.4598 521.685 64.3489 521.588 64.2574C521.491 64.166 521.375 64.0961 521.249 64.0524C521.123 64.0086 520.989 63.992 520.855 64.0036C520.825 64.0021 520.793 64.0021 520.762 64.0036ZM499.763 66.0036C499.543 66.0506 499.348 66.1736 499.21 66.351C499.073 66.5283 499.003 66.7485 499.013 66.9726V69.9726C498.99 70.1085 498.998 70.2477 499.035 70.3804C499.072 70.5131 499.137 70.6362 499.226 70.7412C499.315 70.8462 499.426 70.9305 499.551 70.9884C499.676 71.0462 499.812 71.0762 499.95 71.0762C500.088 71.0762 500.224 71.0462 500.349 70.9884C500.474 70.9305 500.585 70.8462 500.674 70.7412C500.763 70.6362 500.828 70.5131 500.865 70.3804C500.902 70.2477 500.91 70.1085 500.888 69.9726V66.9726C500.891 66.839 500.866 66.7063 500.814 66.5831C500.762 66.4598 500.685 66.3489 500.588 66.2574C500.491 66.166 500.375 66.0961 500.249 66.0524C500.123 66.0086 499.989 65.992 499.856 66.0036C499.824 66.002 499.793 66.002 499.762 66.0036H499.763ZM511.762 66.0036C511.543 66.0506 511.348 66.1736 511.21 66.351C511.073 66.5283 511.003 66.7485 511.012 66.9726V69.9726C510.99 70.1087 510.997 70.2481 511.034 70.3812C511.07 70.5143 511.135 70.6378 511.224 70.7431C511.314 70.8484 511.425 70.933 511.55 70.9911C511.675 71.0491 511.811 71.0792 511.95 71.0792C512.088 71.0792 512.224 71.0491 512.349 70.9911C512.474 70.933 512.585 70.8484 512.675 70.7431C512.764 70.6378 512.829 70.5143 512.865 70.3812C512.902 70.2481 512.909 70.1087 512.887 69.9726V66.9726C512.89 66.8392 512.865 66.7067 512.813 66.5836C512.762 66.4605 512.685 66.3497 512.588 66.2582C512.491 66.1668 512.375 66.0969 512.249 66.053C512.123 66.0092 511.989 65.9923 511.856 66.0036C511.825 66.002 511.793 66.002 511.762 66.0036H511.762ZM523.762 66.0036C523.543 66.0506 523.348 66.1736 523.21 66.351C523.073 66.5283 523.003 66.7485 523.012 66.9726V69.9726C522.99 70.1085 522.998 70.2477 523.035 70.3804C523.072 70.5131 523.137 70.6362 523.226 70.7412C523.315 70.8462 523.426 70.9305 523.551 70.9884C523.676 71.0462 523.812 71.0762 523.95 71.0762C524.088 71.0762 524.224 71.0462 524.349 70.9884C524.474 70.9305 524.585 70.8462 524.674 70.7412C524.763 70.6362 524.828 70.5131 524.865 70.3804C524.902 70.2477 524.91 70.1085 524.887 69.9726V66.9726C524.891 66.839 524.866 66.7063 524.814 66.5831C524.762 66.4598 524.685 66.3489 524.588 66.2574C524.491 66.166 524.375 66.0961 524.249 66.0524C524.123 66.0086 523.989 65.992 523.855 66.0036C523.825 66.0021 523.793 66.0021 523.762 66.0036Z" fill="white" fill-opacity="0.25"/>
<defs>
<linearGradient id="paint0_linear" x1="366" y1="54.6188" x2="366" y2="83.6188" gradientUnits="userSpaceOnUse">
<stop stop-color="#C4C4C4"/>
<stop offset="1" stop-color="#C4C4C4" stop-opacity="0"/>
</linearGradient>
<linearGradient id="paint1_linear" x1="356.436" y1="58.4657" x2="361.448" y2="84.4954" gradientUnits="userSpaceOnUse">
<stop stop-color="white" stop-opacity="0.41"/>
<stop offset="1" stop-color="#0C0C0C" stop-opacity="0"/>
</linearGradient>
<linearGradient id="paint2_linear" x1="366" y1="54.6188" x2="366" y2="83.6188" gradientUnits="userSpaceOnUse">
<stop stop-color="white" stop-opacity="0"/>
<stop offset="0.197917" stop-color="#FEFEFE" stop-opacity="0.21"/>
<stop offset="0.375" stop-color="#FCFCFC" stop-opacity="0.34"/>
<stop offset="0.453125" stop-color="white" stop-opacity="0"/>
</linearGradient>
</defs>
</svg>
