<svg width="19" height="19" viewBox="0 0 19 19" fill="none" xmlns="http://www.w3.org/2000/svg">
<path d="M18.2406 0.979691L9.59766 5.08125C9.33776 4.90663 9.03187 4.81309 8.71875 4.8125C8.30435 4.8125 7.90692 4.97712 7.6139 5.27015C7.32087 5.56317 7.15625 5.9606 7.15625 6.375C7.15625 6.7894 7.32087 7.18683 7.6139 7.47986C7.90692 7.77288 8.30435 7.9375 8.71875 7.9375C9.53906 7.9375 10.2203 7.30235 10.2812 6.49688L15.018 4.25078C16.4359 4.84922 17.3125 5.63047 17.3125 6.375C17.3125 7.84922 13.9711 9.5 9.5 9.5C5.02891 9.5 1.6875 7.84922 1.6875 6.375C1.6875 4.90078 5.02891 3.25 9.5 3.25C9.63437 3.25 9.75625 3.24688 9.89062 3.25L12.6492 1.95625C11.6088 1.77901 10.5554 1.68912 9.5 1.6875C4.15625 1.6875 0.125 3.70157 0.125 6.375V14.1875C0.125 14.9594 0.472656 15.668 1.00391 16.2383C1.53516 16.8086 2.25781 17.2695 3.10391 17.6547C4.79375 18.4234 7.03125 18.875 9.5 18.875C11.9688 18.875 14.2055 18.4234 15.8969 17.6539C16.7422 17.2695 17.4648 16.8086 17.9961 16.2383C18.5273 15.668 18.875 14.9594 18.875 14.1875V6.375C18.875 5.2211 18.1117 4.19532 16.8242 3.3961L18.8992 2.3961L18.2406 0.979691ZM1.6875 9.03594C2.48125 9.63438 3.54609 10.1258 4.8125 10.4766V16.6531C4.42188 16.5313 4.06484 16.3875 3.73828 16.2383C3.03047 15.9148 2.48984 15.5273 2.15156 15.1641C1.8125 14.8008 1.6875 14.4961 1.6875 14.1875V9.03594ZM17.3125 9.03594V14.1875C17.3125 14.4961 17.1875 14.8008 16.8484 15.1641C16.5102 15.5273 15.9695 15.9141 15.2617 16.2383C14.9352 16.3875 14.5781 16.5313 14.1875 16.6531V10.4766C15.4539 10.125 16.5187 9.63438 17.3125 9.03594ZM6.375 10.818C7.40819 10.9851 8.45339 11.0669 9.5 11.0625C10.5466 11.0669 11.5918 10.9851 12.625 10.818V17.0195C11.6641 17.1992 10.6109 17.3125 9.5 17.3125C8.38906 17.3125 7.33594 17.1992 6.375 17.0195V10.818Z" fill="white" fill-opacity="0.25"/>
</svg>
