<svg width="24" height="24" viewBox="0 0 24 24" fill="none" xmlns="http://www.w3.org/2000/svg">
<path d="M23.1581 0L12.1094 5.50074C11.7771 5.26654 11.3861 5.1411 10.9858 5.14031C10.4561 5.14031 9.94801 5.36109 9.57342 5.75408C9.19883 6.14706 8.98839 6.68007 8.98839 7.23583C8.98839 7.7916 9.19883 8.3246 9.57342 8.71759C9.94801 9.11058 10.4561 9.33135 10.9858 9.33135C12.0345 9.33135 12.9053 8.47952 12.9832 7.39928L19.0384 4.38697C20.8511 5.18956 21.9716 6.23732 21.9716 7.23583C21.9716 9.21296 17.7001 11.4269 11.9845 11.4269C6.2689 11.4269 1.99742 9.21296 1.99742 7.23583C1.99742 5.25871 6.2689 3.04479 11.9845 3.04479C12.1563 3.04479 12.3121 3.0406 12.4839 3.04479L16.0103 1.3097C14.6803 1.072 13.3337 0.951437 11.9845 0.949271C5.15334 0.949271 0 3.6504 0 7.23583V17.7134C0 18.7486 0.444426 19.6989 1.12355 20.4638C1.80267 21.2287 2.72648 21.8469 3.80808 22.3634C5.96829 23.3944 8.8286 24 11.9845 24C15.1404 24 17.9998 23.3944 20.162 22.3624C21.2426 21.8469 22.1664 21.2287 22.8455 20.4638C23.5246 19.6989 23.969 18.7486 23.969 17.7134V7.23583C23.969 5.68829 22.9933 4.31258 21.3474 3.24072L24 1.89959L23.1581 0ZM1.99742 10.8045C3.01211 11.6071 4.37335 12.2661 5.99226 12.7366V21.0202C5.4929 20.8567 5.03649 20.6639 4.61903 20.4638C3.7142 20.03 3.02309 19.5103 2.59065 19.0231C2.15721 18.5359 1.99742 18.1273 1.99742 17.7134V10.8045ZM21.9716 10.8045V17.7134C21.9716 18.1273 21.8118 18.5359 21.3784 19.0231C20.9459 19.5103 20.2548 20.029 19.35 20.4638C18.9325 20.6639 18.4761 20.8567 17.9768 21.0202V12.7366C19.5957 12.2651 20.9569 11.6071 21.9716 10.8045ZM7.98968 13.1944C9.31045 13.4186 10.6466 13.5283 11.9845 13.5224C13.3225 13.5283 14.6586 13.4186 15.9794 13.1944V21.5116C14.7509 21.7526 13.4047 21.9045 11.9845 21.9045C10.5644 21.9045 9.21809 21.7526 7.98968 21.5116V13.1944Z" fill="white" fill-opacity="0.25"/>
</svg>
