<svg width="24" height="24" viewBox="0 0 24 24" fill="none" xmlns="http://www.w3.org/2000/svg">
<path d="M21.3333 0H2.66667C1.2 0 0 1.2 0 2.66667V21.3333C0 22.8 1.2 24 2.66667 24H21.3333C22.8 24 24 22.8 24 21.3333V2.66667C24 1.2 22.8 0 21.3333 0ZM14.6667 15.3333H15V21.3333H9V15.3333H9.33333C10.0667 15.3333 10.6667 14.7333 10.6667 14V2.66667H13.3333V14C13.3333 14.7333 13.9333 15.3333 14.6667 15.3333ZM2.66667 2.66667H5.33333V14C5.33333 14.7333 5.93333 15.3333 6.66667 15.3333H7V21.3333H2.66667V2.66667ZM21.3333 21.3333H17V15.3333H17.3333C18.0667 15.3333 18.6667 14.7333 18.6667 14V2.66667H21.3333V21.3333Z" fill="white" fill-opacity="0.25"/>
</svg>
