<svg width="19" height="23" viewBox="0 0 19 23" fill="none" xmlns="http://www.w3.org/2000/svg">
<path d="M14.9286 6.84V1.14C14.9286 0.837653 14.7856 0.54769 14.5311 0.333898C14.2766 0.120107 13.9314 0 13.5714 0C13.2115 0 12.8663 0.120107 12.6118 0.333898C12.3573 0.54769 12.2143 0.837653 12.2143 1.14V6.84H6.78571V1.14C6.78571 0.837653 6.64273 0.54769 6.38822 0.333898C6.1337 0.120107 5.78851 0 5.42857 0C5.06863 0 4.72344 0.120107 4.46893 0.333898C4.21441 0.54769 4.07143 0.837653 4.07143 1.14V6.84H0V11.4C0.000965632 12.9088 0.511578 14.3864 1.47251 15.6612C2.43345 16.9359 3.80526 17.9555 5.42857 18.6014V22.8H13.5714V18.6014C15.1947 17.9555 16.5665 16.9359 17.5275 15.6612C18.4884 14.3864 18.999 12.9088 19 11.4V6.84H14.9286Z" fill="white" fill-opacity="0.25"/>
</svg>
