<svg width="24" height="24" viewBox="0 0 24 24" fill="none" xmlns="http://www.w3.org/2000/svg">
<path d="M17.3861 0.00406402C17.1829 0.0575977 17.0017 0.197737 16.8745 0.399681C16.7473 0.601624 16.6823 0.852352 16.6911 1.10749V22.7433C16.6705 22.8981 16.6775 23.0566 16.7116 23.2077C16.7458 23.3588 16.8063 23.499 16.8889 23.6186C16.9716 23.7381 17.0744 23.8342 17.1902 23.9C17.3061 23.9659 17.4322 24 17.5598 24C17.6875 24 17.8136 23.9659 17.9295 23.9C18.0453 23.8342 18.1481 23.7381 18.2308 23.6186C18.3134 23.499 18.3739 23.3588 18.408 23.2077C18.4422 23.0566 18.4492 22.8981 18.4286 22.7433V1.10749C18.4315 0.955409 18.4083 0.804274 18.3605 0.663955C18.3127 0.523636 18.2413 0.397287 18.1511 0.293156C18.0608 0.189026 17.9537 0.109457 17.8368 0.0596428C17.7198 0.00982883 17.5956 -0.00910968 17.4723 0.00406402C17.4436 0.00233511 17.4148 0.00233511 17.3861 0.00406402ZM6.26641 1.14279C6.06322 1.19632 5.882 1.33646 5.7548 1.53841C5.62761 1.74035 5.56266 1.99108 5.57143 2.24622V21.6046C5.55079 21.7594 5.55779 21.9178 5.59195 22.069C5.62611 22.2201 5.6866 22.3603 5.76924 22.4799C5.85188 22.5994 5.95469 22.6954 6.07054 22.7613C6.18639 22.8272 6.31251 22.8613 6.44015 22.8613C6.5678 22.8613 6.69392 22.8272 6.80977 22.7613C6.92562 22.6954 7.02842 22.5994 7.11107 22.4799C7.19371 22.3603 7.2542 22.2201 7.28836 22.069C7.32252 21.9178 7.32952 21.7594 7.30888 21.6046V2.24622C7.31182 2.09414 7.28863 1.943 7.24081 1.80268C7.193 1.66236 7.12164 1.53601 7.0314 1.43188C6.94115 1.32775 6.83405 1.24818 6.71708 1.19837C6.60011 1.14856 6.47591 1.12962 6.35259 1.14279C6.32388 1.14106 6.29512 1.14106 6.26641 1.14279ZM14.6062 4.55897C14.403 4.6125 14.2218 4.75264 14.0946 4.95459C13.9674 5.15653 13.9024 5.40726 13.9112 5.6624V18.1884C13.8901 18.3434 13.8968 18.5022 13.9307 18.6537C13.9646 18.8052 14.025 18.9459 14.1076 19.0658C14.1903 19.1857 14.2932 19.2821 14.4092 19.3482C14.5252 19.4143 14.6516 19.4485 14.7795 19.4485C14.9073 19.4485 15.0337 19.4143 15.1497 19.3482C15.2657 19.2821 15.3686 19.1857 15.4513 19.0658C15.5339 18.9459 15.5943 18.8052 15.6282 18.6537C15.6622 18.5022 15.6688 18.3434 15.6477 18.1884V5.6624C15.6506 5.51052 15.6275 5.3596 15.5798 5.21945C15.5321 5.0793 15.4609 4.95307 15.3709 4.84898C15.2808 4.74488 15.1739 4.66526 15.0572 4.61529C14.9405 4.56533 14.8165 4.54614 14.6933 4.55897C14.664 4.55717 14.6346 4.55717 14.6053 4.55897H14.6062ZM3.48649 5.6977C3.2833 5.75123 3.10207 5.89137 2.97488 6.09331C2.84769 6.29526 2.78273 6.54599 2.79151 6.80112V17.0497C2.77042 17.2047 2.77707 17.3635 2.811 17.515C2.84492 17.6665 2.9053 17.8071 2.98794 17.9271C3.07058 18.047 3.17349 18.1434 3.28951 18.2095C3.40553 18.2756 3.53188 18.3098 3.65977 18.3098C3.78765 18.3098 3.914 18.2756 4.03003 18.2095C4.14605 18.1434 4.24896 18.047 4.3316 17.9271C4.41424 17.8071 4.47462 17.6665 4.50854 17.515C4.54246 17.3635 4.54911 17.2047 4.52803 17.0497V6.80112C4.53095 6.64925 4.5078 6.49833 4.46009 6.35818C4.41239 6.21803 4.3412 6.0918 4.25116 5.9877C4.16112 5.88361 4.05425 5.80399 3.93751 5.75402C3.82077 5.70405 3.69677 5.68486 3.57359 5.6977C3.54427 5.69589 3.51489 5.69589 3.48556 5.6977H3.48649ZM9.04633 6.83642C8.84314 6.88996 8.66192 7.0301 8.53473 7.23204C8.40753 7.43398 8.34258 7.68471 8.35135 7.93985V15.9109C8.33027 16.0659 8.33692 16.2247 8.37084 16.3763C8.40477 16.5278 8.46515 16.6684 8.54779 16.7883C8.63042 16.9083 8.73333 17.0046 8.84936 17.0707C8.96538 17.1368 9.09173 17.1711 9.21961 17.1711C9.3475 17.1711 9.47385 17.1368 9.58987 17.0707C9.70589 17.0046 9.8088 16.9083 9.89144 16.7883C9.97408 16.6684 10.0345 16.5278 10.0684 16.3763C10.1023 16.2247 10.109 16.0659 10.0879 15.9109V7.93985C10.0908 7.78798 10.0676 7.63705 10.0199 7.4969C9.97224 7.35676 9.90105 7.23052 9.81101 7.12643C9.72097 7.02234 9.6141 6.94271 9.49736 6.89275C9.38061 6.84278 9.25662 6.82359 9.13344 6.83642C9.10411 6.83462 9.07473 6.83462 9.04541 6.83642H9.04633ZM20.166 6.83642C19.9628 6.88996 19.7816 7.0301 19.6544 7.23204C19.5272 7.43398 19.4623 7.68471 19.471 7.93985V15.9109C19.4504 16.0657 19.4574 16.2242 19.4916 16.3753C19.5257 16.5265 19.5862 16.6667 19.6689 16.7862C19.7515 16.9058 19.8543 17.0018 19.9702 17.0677C20.086 17.1335 20.2121 17.1676 20.3398 17.1676C20.4674 17.1676 20.5935 17.1335 20.7094 17.0677C20.8252 17.0018 20.928 16.9058 21.0107 16.7862C21.0933 16.6667 21.1538 16.5265 21.188 16.3753C21.2221 16.2242 21.2291 16.0657 21.2085 15.9109V7.93985C21.2114 7.78777 21.1882 7.63664 21.1404 7.49632C21.0926 7.356 21.0213 7.22965 20.931 7.12552C20.8408 7.02139 20.7337 6.94182 20.6167 6.892C20.4997 6.84219 20.3755 6.82325 20.2522 6.83642C20.2235 6.8347 20.1947 6.8347 20.166 6.83642ZM0.706564 9.11388C0.503376 9.16741 0.322151 9.30755 0.194959 9.50949C0.0677665 9.71144 0.00280949 9.96217 0.0115831 10.2173V13.6335C-0.00905553 13.7883 -0.00205331 13.9467 0.0321043 14.0979C0.066262 14.249 0.126758 14.3892 0.209398 14.5088C0.292039 14.6283 0.394847 14.7244 0.510696 14.7902C0.626545 14.8561 0.752664 14.8902 0.880309 14.8902C1.00795 14.8902 1.13407 14.8561 1.24992 14.7902C1.36577 14.7244 1.46858 14.6283 1.55122 14.5088C1.63386 14.3892 1.69436 14.249 1.72851 14.0979C1.76267 13.9467 1.76967 13.7883 1.74903 13.6335V10.2173C1.75198 10.0652 1.72878 9.91409 1.68097 9.77377C1.63315 9.63345 1.5618 9.5071 1.47155 9.40297C1.3813 9.29884 1.2742 9.21927 1.15724 9.16946C1.04027 9.11964 0.916068 9.10071 0.792741 9.11388C0.763724 9.11211 0.734654 9.11211 0.705637 9.11388H0.706564ZM11.8263 9.11388C11.6231 9.16741 11.4418 9.30755 11.3146 9.50949C11.1875 9.71144 11.1225 9.96217 11.1313 10.2173V13.6335C11.1102 13.7885 11.1168 13.9473 11.1508 14.0988C11.1847 14.2503 11.2451 14.3909 11.3277 14.5109C11.4103 14.6308 11.5133 14.7272 11.6293 14.7933C11.7453 14.8594 11.8717 14.8936 11.9995 14.8936C12.1274 14.8936 12.2538 14.8594 12.3698 14.7933C12.4858 14.7272 12.5887 14.6308 12.6714 14.5109C12.754 14.3909 12.8144 14.2503 12.8483 14.0988C12.8822 13.9473 12.8889 13.7885 12.8678 13.6335V10.2173C12.8707 10.0654 12.8476 9.91451 12.7999 9.77436C12.7522 9.63421 12.681 9.50798 12.5909 9.40388C12.5009 9.29979 12.394 9.22017 12.2773 9.1702C12.1605 9.12023 12.0365 9.10104 11.9134 9.11388C11.884 9.11207 11.8547 9.11207 11.8253 9.11388H11.8263ZM22.9459 9.11388C22.7428 9.16741 22.5615 9.30755 22.4343 9.50949C22.3071 9.71144 22.2422 9.96217 22.251 10.2173V13.6335C22.2303 13.7883 22.2373 13.9467 22.2715 14.0979C22.3056 14.249 22.3661 14.3892 22.4488 14.5088C22.5314 14.6283 22.6342 14.7244 22.7501 14.7902C22.8659 14.8561 22.992 14.8902 23.1197 14.8902C23.2473 14.8902 23.3735 14.8561 23.4893 14.7902C23.6052 14.7244 23.708 14.6283 23.7906 14.5088C23.8732 14.3892 23.9337 14.249 23.9679 14.0979C24.0021 13.9467 24.0091 13.7883 23.9884 13.6335V10.2173C23.9914 10.0652 23.9682 9.91409 23.9203 9.77377C23.8725 9.63345 23.8012 9.5071 23.7109 9.40297C23.6207 9.29884 23.5136 9.21927 23.3966 9.16946C23.2797 9.11964 23.1554 9.10071 23.0321 9.11388C23.0034 9.11215 22.9747 9.11215 22.9459 9.11388Z" fill="white" fill-opacity="0.25"/>
</svg>
